<svg xmlns="http://www.w3.org/2000/svg" width="425" height="593" viewBox="0 0 425 593">
  <path d="M 310.00,269.94 C 308.93,270.96 306.79,273.68 305.50,275.06 C 304.21,276.44 302.22,278.44 300.91,279.67 C 299.59,280.90 297.56,282.68 296.22,283.77 C 294.88,284.85 292.81,286.40 291.44,287.34 C 290.07,288.28 287.97,289.59 286.56,290.41 C 285.15,291.23 282.94,292.41 281.47,293.14 C 279.99,293.87 277.69,294.91 276.16,295.55 C 274.62,296.18 272.22,297.08 270.62,297.62 C 269.03,298.17 266.85,298.93 264.88,299.38 C 262.90,299.82 259.36,300.41 256.70,300.75 C 254.04,301.09 249.45,301.52 246.11,301.75 C 242.76,301.98 237.12,302.25 233.09,302.38 C 229.06,302.50 221.80,302.49 217.66,302.62 C 213.51,302.76 207.52,303.06 203.83,303.31 C 200.14,303.57 194.84,304.06 191.61,304.44 C 188.38,304.82 183.78,305.50 181.00,306.00 C 178.22,306.50 174.52,307.38 172.00,308.00 C 169.48,308.62 165.68,309.66 163.22,310.39 C 160.76,311.12 157.05,312.33 154.66,313.17 C 152.26,314.02 148.65,315.39 146.31,316.34 C 143.98,317.30 140.54,318.76 138.19,319.91 C 135.84,321.05 132.18,323.02 129.73,324.44 C 127.29,325.86 123.49,328.24 120.95,329.94 C 118.42,331.63 114.47,334.44 111.84,336.41 C 109.22,338.38 104.96,341.73 102.41,343.84 C 99.85,345.96 96.14,349.22 93.83,351.36 C 91.52,353.50 88.17,356.79 86.11,358.95 C 84.04,361.12 81.07,364.44 79.25,366.62 C 77.43,368.81 74.91,372.06 73.25,374.38 C 71.59,376.69 69.12,380.41 67.55,382.97 C 65.97,385.52 63.63,389.61 62.14,392.41 C 60.65,395.20 58.44,399.65 57.03,402.69 C 55.63,405.72 53.47,410.68 52.22,413.81 C 50.96,416.94 49.21,421.70 48.17,424.78 C 47.13,427.87 45.71,432.55 44.89,435.59 C 44.07,438.64 42.98,443.25 42.38,446.25 C 41.77,449.25 41.06,453.55 40.62,456.75 C 40.19,459.95 39.62,465.20 39.31,468.86 C 39.00,472.52 38.62,478.46 38.44,482.58 C 38.25,486.69 38.06,493.34 38.00,497.91 C 37.94,502.48 38.04,510.49 38.00,514.84 C 37.96,519.20 37.86,525.19 37.75,528.67 C 37.64,532.15 37.43,536.79 37.25,539.39 C 37.07,541.99 36.75,545.28 36.50,547.00 C 36.25,548.72 35.87,550.19 35.50,551.50 C 35.13,552.81 34.41,554.85 33.86,556.22 C 33.30,557.59 32.32,559.73 31.58,561.16 C 30.84,562.59 29.57,564.82 28.66,566.31 C 27.74,567.80 26.15,570.25 25.09,571.69 C 24.04,573.13 22.34,575.20 21.19,576.47 C 20.03,577.74 18.19,579.55 16.94,580.66 C 15.68,581.76 13.69,583.32 12.34,584.25 C 10.99,585.18 7.72,586.51 7.41,587.25 C 7.10,587.99 8.29,588.97 10.16,589.50 C 12.02,590.03 16.55,590.68 20.59,591.00 C 24.64,591.32 32.49,591.64 38.72,591.75 C 44.94,591.86 57.88,591.81 64.53,591.75 C 71.18,591.69 80.33,591.50 85.64,591.31 C 90.96,591.13 98.06,590.75 102.05,590.44 C 106.03,590.13 111.10,589.56 113.75,589.12 C 116.40,588.69 118.86,587.89 120.75,587.38 C 122.64,586.86 125.39,586.04 127.09,585.48 C 128.80,584.93 131.26,584.05 132.78,583.45 C 134.30,582.86 136.48,581.92 137.81,581.28 C 139.15,580.65 140.90,579.73 142.19,578.97 C 143.47,578.21 145.51,576.90 146.89,575.94 C 148.27,574.98 150.45,573.35 151.92,572.19 C 153.39,571.02 155.72,569.09 157.28,567.72 C 158.85,566.35 161.45,563.99 162.97,562.53 C 164.49,561.07 166.67,558.86 168.00,557.42 C 169.33,555.99 171.23,553.81 172.38,552.39 C 173.52,550.98 175.13,548.83 176.09,547.44 C 177.05,546.05 178.32,544.01 179.16,542.56 C 180.00,541.11 181.23,538.80 182.02,537.22 C 182.80,535.64 183.95,533.12 184.67,531.41 C 185.40,529.69 186.46,526.97 187.12,525.12 C 187.79,523.28 188.80,520.94 189.38,518.38 C 189.95,515.81 190.74,510.89 191.19,507.02 C 191.64,503.14 192.23,496.22 192.56,491.05 C 192.89,485.87 193.30,476.95 193.50,470.47 C 193.70,463.99 193.94,451.53 194.00,445.28 C 194.06,439.03 194.03,430.83 193.92,426.36 C 193.82,421.89 193.53,416.40 193.27,413.70 C 193.00,411.00 192.46,408.24 192.03,407.31 C 191.60,406.39 190.87,407.16 190.22,407.19 C 189.57,407.22 188.35,407.37 187.42,407.53 C 186.49,407.70 184.85,408.05 183.64,408.34 C 182.43,408.64 180.36,409.20 178.88,409.62 C 177.39,410.05 174.74,410.82 173.12,411.38 C 171.51,411.93 169.06,412.85 167.47,413.52 C 165.88,414.18 163.47,415.27 161.91,416.05 C 160.34,416.82 157.97,418.09 156.44,418.97 C 154.90,419.85 152.56,421.27 151.06,422.28 C 149.56,423.30 147.31,424.96 145.86,426.12 C 144.41,427.29 142.23,429.19 140.83,430.50 C 139.43,431.81 137.32,433.94 135.97,435.41 C 134.62,436.87 132.51,439.34 131.28,440.84 C 130.05,442.35 128.33,444.60 127.30,446.03 C 126.27,447.47 124.85,449.61 124.02,450.97 C 123.19,452.33 122.07,454.36 121.44,455.66 C 120.81,456.95 120.04,459.03 119.56,460.09 C 119.09,461.16 118.45,462.48 118.09,463.16 C 117.74,463.83 117.27,464.56 117.03,464.84 C 116.79,465.13 116.50,465.26 116.38,465.16 C 116.25,465.05 116.13,464.53 116.12,464.09 C 116.12,463.65 116.20,462.77 116.31,462.05 C 116.43,461.33 116.70,460.01 116.94,459.02 C 117.18,458.02 117.64,456.28 118.00,455.00 C 118.36,453.72 119.00,451.44 119.50,450.00 C 120.00,448.56 120.87,446.33 121.52,444.84 C 122.16,443.36 123.26,441.06 124.05,439.53 C 124.84,438.00 126.16,435.63 127.09,434.06 C 128.03,432.49 129.60,429.96 130.66,428.44 C 131.71,426.91 133.38,424.68 134.52,423.28 C 135.65,421.89 137.45,419.86 138.67,418.59 C 139.89,417.33 141.82,415.50 143.12,414.38 C 144.43,413.25 146.48,411.65 147.88,410.62 C 149.27,409.60 151.48,408.11 152.97,407.17 C 154.46,406.24 156.82,404.87 158.41,404.02 C 160.00,403.16 162.50,401.92 164.19,401.16 C 165.87,400.39 168.34,399.36 170.31,398.59 C 172.29,397.83 175.68,396.59 178.14,395.73 C 180.60,394.88 184.73,393.51 187.67,392.58 C 190.61,391.64 195.48,390.15 198.91,389.12 C 202.33,388.10 208.30,386.53 211.84,385.38 C 215.39,384.22 220.64,382.32 223.95,380.98 C 227.27,379.65 232.16,377.47 235.23,375.95 C 238.31,374.44 242.84,371.98 245.69,370.28 C 248.53,368.58 252.78,365.69 255.31,363.97 C 257.85,362.25 261.43,359.71 263.58,358.12 C 265.73,356.54 268.72,354.21 270.48,352.75 C 272.25,351.29 274.65,349.17 276.03,347.84 C 277.41,346.52 279.06,344.69 280.22,343.41 C 281.38,342.12 283.12,340.11 284.23,338.77 C 285.35,337.42 287.01,335.32 288.08,333.92 C 289.14,332.52 290.73,330.33 291.75,328.88 C 292.77,327.42 294.28,325.15 295.25,323.62 C 296.22,322.10 297.66,319.70 298.58,318.09 C 299.50,316.49 300.86,313.97 301.73,312.28 C 302.60,310.59 303.90,307.95 304.72,306.19 C 305.54,304.42 306.79,301.64 307.53,299.81 C 308.27,297.98 309.32,295.15 309.95,293.28 C 310.58,291.41 311.46,288.51 311.98,286.59 C 312.50,284.68 313.22,281.71 313.62,279.75 C 314.03,277.79 314.72,274.30 314.88,272.75 C 315.03,271.20 314.94,269.48 314.69,268.78 C 314.43,268.09 313.73,267.68 313.06,267.84 C 312.40,268.01 311.07,268.91 310.00,269.94 Z" fill="#2C626B"/>
  <path d="M 402.03,125.81 C 401.56,124.95 400.83,123.63 400.22,122.69 C 399.61,121.75 398.54,120.22 397.75,119.17 C 396.96,118.12 395.60,116.43 394.62,115.27 C 393.65,114.10 392.01,112.24 390.84,110.97 C 389.68,109.70 387.67,107.54 386.41,106.28 C 385.14,105.02 383.20,103.19 381.92,102.06 C 380.64,100.93 378.68,99.31 377.39,98.31 C 376.10,97.32 374.12,95.89 372.81,95.03 C 371.51,94.17 369.58,92.99 368.19,92.22 C 366.79,91.45 364.53,90.32 362.97,89.61 C 361.41,88.90 358.89,87.86 357.16,87.20 C 355.43,86.55 352.65,85.60 350.75,85.00 C 348.85,84.40 345.75,83.50 343.75,83.00 C 341.75,82.50 338.67,81.85 336.64,81.50 C 334.61,81.15 331.48,80.71 329.42,80.50 C 327.36,80.29 324.19,80.07 322.09,80.00 C 320.00,79.93 316.79,79.93 314.66,80.00 C 312.52,80.07 309.21,80.29 307.02,80.50 C 304.82,80.71 301.42,81.15 299.17,81.50 C 296.92,81.85 293.43,82.50 291.12,83.00 C 288.82,83.50 285.19,84.36 282.88,85.00 C 280.56,85.64 277.05,86.73 274.78,87.52 C 272.51,88.30 269.07,89.61 266.84,90.55 C 264.62,91.48 261.25,93.02 259.06,94.09 C 256.88,95.17 253.57,96.93 251.44,98.16 C 249.30,99.38 246.07,101.37 243.98,102.75 C 241.90,104.13 238.74,106.35 236.70,107.88 C 234.66,109.40 231.58,111.85 229.59,113.53 C 227.60,115.21 224.52,117.97 222.66,119.72 C 220.79,121.47 218.08,124.13 216.41,125.86 C 214.73,127.59 212.32,130.23 210.84,131.95 C 209.37,133.67 207.25,136.29 205.97,138.00 C 204.68,139.71 202.93,142.67 201.78,144.00 C 200.64,145.33 198.95,146.79 197.89,147.38 C 196.83,147.96 195.27,148.28 194.30,148.12 C 193.32,147.97 191.89,147.15 191.00,146.25 C 190.11,145.35 188.87,142.99 188.00,141.75 C 187.13,140.51 185.79,138.68 184.89,137.52 C 183.99,136.35 182.60,134.63 181.67,133.55 C 180.74,132.46 179.30,130.86 178.34,129.84 C 177.39,128.83 176.08,127.46 174.91,126.41 C 173.73,125.35 171.63,123.60 170.05,122.38 C 168.47,121.15 165.75,119.14 163.77,117.75 C 161.78,116.36 158.45,114.09 156.06,112.53 C 153.68,110.97 149.62,108.28 146.94,106.72 C 144.26,105.15 140.02,102.89 137.16,101.48 C 134.29,100.08 129.77,98.07 126.72,96.83 C 123.67,95.59 118.86,93.82 115.62,92.75 C 112.39,91.68 107.20,90.14 103.88,89.25 C 100.55,88.36 95.46,87.14 92.14,86.44 C 88.82,85.74 83.74,84.82 80.42,84.31 C 77.10,83.81 72.03,83.18 68.72,82.88 C 65.41,82.57 59.94,80.63 57.03,82.12 C 54.12,83.62 50.28,88.53 48.17,93.45 C 46.06,98.37 43.45,108.52 42.14,116.86 C 40.83,125.20 39.44,140.58 38.94,152.34 C 38.43,164.11 38.63,187.99 38.56,199.91 C 38.50,211.82 38.46,227.66 38.47,236.45 C 38.48,245.25 38.56,256.31 38.66,261.98 C 38.75,267.66 38.95,273.95 39.12,276.50 C 39.30,279.05 39.62,279.00 39.88,280.00 C 40.13,281.00 40.60,282.53 40.95,283.53 C 41.31,284.54 41.91,286.08 42.36,287.09 C 42.80,288.11 43.56,289.66 44.09,290.69 C 44.63,291.71 45.53,293.31 46.16,294.31 C 46.78,295.32 47.80,296.81 48.50,297.77 C 49.20,298.72 50.34,300.14 51.12,301.05 C 51.91,301.95 53.17,303.30 54.03,304.16 C 54.89,305.01 56.17,306.28 57.22,307.09 C 58.27,307.90 60.11,309.11 61.45,309.88 C 62.80,310.64 65.09,311.78 66.73,312.50 C 68.38,313.22 71.12,314.29 73.06,314.97 C 75.00,315.65 78.45,316.72 80.44,317.28 C 82.42,317.85 85.30,318.57 87.08,318.95 C 88.86,319.34 91.41,319.78 92.98,319.98 C 94.55,320.19 96.79,320.36 98.16,320.38 C 99.52,320.39 101.23,320.33 102.59,320.12 C 103.95,319.92 106.19,319.41 107.75,318.94 C 109.31,318.47 111.86,317.55 113.62,316.81 C 115.39,316.08 118.25,314.75 120.22,313.75 C 122.19,312.75 125.50,310.82 127.53,309.75 C 129.57,308.68 132.62,307.13 134.58,306.19 C 136.54,305.24 139.48,303.89 141.36,303.06 C 143.24,302.24 146.07,301.07 147.88,300.38 C 149.68,299.68 152.22,298.74 154.12,298.12 C 156.03,297.51 159.13,296.62 161.30,296.06 C 163.46,295.50 166.97,294.69 169.39,294.19 C 171.81,293.68 175.72,292.95 178.41,292.50 C 181.09,292.05 185.88,292.03 188.34,291.00 C 190.81,289.97 194.06,287.47 195.83,285.23 C 197.60,283.00 199.78,278.65 200.86,275.20 C 201.94,271.76 203.05,265.56 203.44,260.91 C 203.82,256.25 203.46,247.28 203.56,242.34 C 203.66,237.41 203.92,230.34 204.16,226.05 C 204.39,221.75 204.85,215.67 205.22,212.02 C 205.59,208.36 206.25,203.26 206.75,200.25 C 207.25,197.24 208.15,193.30 208.75,190.75 C 209.35,188.20 210.30,184.50 210.95,182.22 C 211.61,179.94 212.65,176.66 213.36,174.66 C 214.07,172.65 215.20,169.79 215.97,168.06 C 216.74,166.33 217.95,164.00 218.78,162.44 C 219.61,160.87 220.93,158.53 221.83,157.03 C 222.72,155.53 224.15,153.28 225.11,151.84 C 226.07,150.40 227.60,148.25 228.62,146.88 C 229.65,145.50 231.31,143.42 232.38,142.12 C 233.44,140.83 235.06,138.94 236.12,137.75 C 237.19,136.56 238.81,134.83 239.88,133.75 C 240.94,132.67 242.56,131.10 243.62,130.12 C 244.69,129.15 246.25,127.80 247.38,126.88 C 248.50,125.95 250.33,124.54 251.59,123.61 C 252.86,122.68 254.89,121.26 256.28,120.33 C 257.68,119.40 259.91,117.97 261.44,117.03 C 262.96,116.09 265.40,114.62 267.06,113.72 C 268.72,112.82 271.36,111.50 273.16,110.67 C 274.95,109.85 277.79,108.64 279.72,107.89 C 281.64,107.14 284.69,106.05 286.75,105.38 C 288.81,104.70 292.08,103.68 294.25,103.12 C 296.42,102.57 299.80,101.84 302.05,101.44 C 304.30,101.04 307.81,100.55 310.14,100.31 C 312.48,100.07 316.11,99.83 318.53,99.75 C 320.95,99.67 324.74,99.63 327.22,99.75 C 329.70,99.87 333.51,100.23 336.02,100.58 C 338.52,100.93 342.38,101.65 344.92,102.23 C 347.46,102.82 351.37,103.90 353.94,104.72 C 356.51,105.54 360.62,107.08 363.06,108.03 C 365.50,108.99 369.01,110.47 371.16,111.45 C 373.30,112.44 376.36,113.97 378.22,114.98 C 380.07,116.00 382.69,117.58 384.25,118.62 C 385.81,119.67 387.92,121.33 389.25,122.38 C 390.58,123.42 392.48,124.97 393.64,125.97 C 394.80,126.96 396.44,128.45 397.42,129.41 C 398.41,130.36 399.78,131.78 400.59,132.69 C 401.41,133.60 402.54,135.13 403.16,135.81 C 403.77,136.50 404.54,137.24 404.94,137.53 C 405.33,137.82 405.76,137.95 405.94,137.84 C 406.11,137.73 406.20,137.26 406.16,136.75 C 406.11,136.24 405.80,134.98 405.59,134.25 C 405.39,133.52 405.01,132.37 404.72,131.59 C 404.43,130.82 403.91,129.60 403.53,128.78 C 403.15,127.96 402.50,126.68 402.03,125.81 Z" fill="#2C626B"/>
  <path d="M 349.88,116.75 C 348.12,116.26 345.47,115.60 343.62,115.25 C 341.78,114.90 338.83,114.46 336.83,114.25 C 334.82,114.04 331.64,113.82 329.48,113.75 C 327.33,113.68 323.91,113.68 321.59,113.75 C 319.28,113.82 315.53,114.02 313.16,114.25 C 310.79,114.48 307.19,114.98 304.86,115.39 C 302.53,115.80 298.99,116.58 296.70,117.17 C 294.41,117.77 290.94,118.82 288.69,119.59 C 286.44,120.37 282.96,121.75 280.81,122.66 C 278.67,123.56 275.52,125.01 273.55,126.00 C 271.57,126.99 268.69,128.56 266.89,129.62 C 265.09,130.69 262.47,132.38 260.84,133.53 C 259.22,134.68 256.57,136.72 255.41,137.72 C 254.24,138.72 253.02,139.97 252.59,140.59 C 252.17,141.22 252.09,141.90 252.41,142.16 C 252.72,142.41 253.78,142.52 254.84,142.41 C 255.91,142.29 258.54,141.60 259.91,141.34 C 261.27,141.09 263.26,140.77 264.50,140.61 C 265.74,140.45 267.52,140.27 268.62,140.20 C 269.73,140.13 271.31,140.10 272.28,140.12 C 273.25,140.15 274.56,140.28 275.47,140.38 C 276.37,140.47 277.76,140.66 278.67,140.81 C 279.58,140.96 280.98,141.23 281.89,141.44 C 282.80,141.64 284.21,141.99 285.12,142.25 C 286.04,142.51 287.45,142.93 288.38,143.25 C 289.30,143.57 290.72,144.12 291.66,144.52 C 292.59,144.91 294.03,145.58 294.97,146.05 C 295.91,146.52 297.36,147.30 298.31,147.84 C 299.26,148.39 300.74,149.28 301.69,149.91 C 302.63,150.53 304.05,151.56 304.97,152.27 C 305.89,152.98 307.27,154.13 308.16,154.92 C 309.05,155.72 310.39,157.00 311.25,157.88 C 312.11,158.75 313.43,160.19 314.25,161.12 C 315.07,162.06 316.27,163.51 317.02,164.47 C 317.77,165.43 318.86,166.92 319.55,167.91 C 320.23,168.89 321.23,170.42 321.84,171.44 C 322.46,172.45 323.34,173.96 323.91,175.06 C 324.47,176.16 325.30,177.97 325.83,179.22 C 326.35,180.47 327.12,182.50 327.61,183.91 C 328.09,185.31 328.81,187.57 329.25,189.12 C 329.69,190.68 330.36,193.22 330.75,194.88 C 331.14,196.53 331.68,199.09 332.00,200.80 C 332.32,202.50 332.75,205.14 333.00,206.89 C 333.25,208.64 333.57,211.36 333.75,213.16 C 333.93,214.96 334.20,217.51 334.25,219.59 C 334.30,221.68 334.25,225.26 334.12,227.86 C 334.00,230.46 333.68,234.83 333.38,237.95 C 333.07,241.07 332.48,246.24 332.00,249.88 C 331.52,253.51 330.65,259.86 330.00,263.62 C 329.35,267.39 328.23,272.96 327.42,276.47 C 326.61,279.98 325.24,285.15 324.27,288.41 C 323.29,291.66 321.67,296.44 320.53,299.44 C 319.39,302.43 317.44,306.84 316.22,309.56 C 315.00,312.29 313.14,316.23 311.92,318.66 C 310.71,321.09 308.85,324.58 307.64,326.72 C 306.43,328.86 304.58,331.90 303.38,333.75 C 302.17,335.60 300.33,338.11 299.12,339.75 C 297.92,341.39 296.08,343.80 294.88,345.31 C 293.67,346.83 291.83,349.05 290.62,350.44 C 289.42,351.83 287.58,353.86 286.38,355.12 C 285.17,356.39 283.49,358.11 282.12,359.38 C 280.76,360.64 278.42,362.67 276.73,364.06 C 275.05,365.45 272.22,367.67 270.20,369.19 C 268.19,370.70 264.87,373.11 262.53,374.75 C 260.20,376.39 255.63,379.27 253.72,380.75 C 251.81,382.23 249.78,384.15 249.03,385.19 C 248.29,386.22 248.04,387.47 248.47,388.06 C 248.89,388.66 250.44,389.22 252.03,389.38 C 253.62,389.53 257.60,389.23 259.72,389.12 C 261.84,389.02 264.99,388.80 266.98,388.62 C 268.98,388.45 271.95,388.12 273.83,387.88 C 275.71,387.63 278.49,387.19 280.25,386.88 C 282.01,386.56 284.58,386.00 286.25,385.62 C 287.92,385.25 290.44,384.66 292.06,384.25 C 293.68,383.84 296.12,383.19 297.69,382.75 C 299.25,382.31 301.61,381.60 303.12,381.12 C 304.64,380.65 306.83,379.94 308.38,379.38 C 309.92,378.81 312.37,377.86 314.03,377.17 C 315.69,376.48 318.32,375.33 320.09,374.52 C 321.87,373.70 324.67,372.35 326.56,371.41 C 328.45,370.46 331.56,368.86 333.44,367.84 C 335.32,366.83 338.10,365.26 339.84,364.23 C 341.59,363.21 344.17,361.62 345.78,360.58 C 347.40,359.54 349.77,357.93 351.25,356.88 C 352.73,355.82 354.84,354.23 356.25,353.12 C 357.66,352.02 359.82,350.27 361.23,349.08 C 362.64,347.89 364.80,346.01 366.20,344.73 C 367.61,343.46 369.76,341.45 371.16,340.09 C 372.56,338.74 374.64,336.75 376.09,335.16 C 377.55,333.56 379.87,330.84 381.44,328.86 C 383.01,326.88 385.50,323.56 387.19,321.20 C 388.87,318.84 391.54,314.93 393.34,312.19 C 395.15,309.44 398.16,304.81 399.91,301.81 C 401.65,298.82 404.13,294.14 405.64,291.03 C 407.15,287.92 409.27,283.07 410.55,279.84 C 411.82,276.62 413.59,271.59 414.62,268.25 C 415.66,264.91 417.06,259.42 417.88,256.25 C 418.69,253.08 419.77,248.59 420.38,245.89 C 420.98,243.19 421.74,239.41 422.12,237.17 C 422.51,234.93 422.95,231.87 423.12,230.09 C 423.30,228.32 423.35,226.25 423.38,224.66 C 423.40,223.06 423.37,220.53 423.31,218.83 C 423.25,217.12 423.09,214.43 422.94,212.61 C 422.79,210.79 422.49,207.93 422.25,206.00 C 422.01,204.07 421.59,200.96 421.25,199.00 C 420.91,197.04 420.31,194.07 419.86,192.16 C 419.41,190.24 418.64,187.34 418.08,185.47 C 417.52,183.60 416.58,180.77 415.91,178.94 C 415.24,177.11 414.09,174.29 413.34,172.56 C 412.60,170.83 411.44,168.30 410.67,166.72 C 409.90,165.14 408.69,162.84 407.89,161.41 C 407.09,159.98 405.83,157.90 405.00,156.62 C 404.17,155.35 402.87,153.55 402.00,152.38 C 401.13,151.20 399.75,149.45 398.83,148.33 C 397.91,147.21 396.46,145.54 395.48,144.48 C 394.51,143.42 392.99,141.85 391.97,140.84 C 390.95,139.84 389.40,138.38 388.28,137.41 C 387.16,136.44 385.32,134.96 384.05,134.00 C 382.77,133.04 380.70,131.58 379.27,130.62 C 377.83,129.67 375.52,128.22 373.94,127.28 C 372.35,126.34 369.74,124.84 368.06,123.97 C 366.38,123.09 363.80,121.86 362.09,121.11 C 360.39,120.36 357.76,119.32 356.03,118.70 C 354.30,118.09 351.63,117.24 349.88,116.75 Z" fill="#2C626B"/>
  <path d="M 80.00,11.34 C 79.96,13.22 79.72,16.91 80.00,18.91 C 80.28,20.90 81.14,23.73 81.98,25.44 C 82.83,27.14 84.55,29.53 85.95,30.94 C 87.36,32.35 89.94,34.29 91.91,35.41 C 93.87,36.53 97.56,37.78 99.84,38.84 C 102.13,39.91 105.69,41.68 108.05,42.92 C 110.41,44.17 114.08,46.21 116.52,47.64 C 118.95,49.07 122.74,51.39 125.25,53.00 C 127.76,54.61 131.85,57.34 134.25,59.00 C 136.65,60.66 140.09,63.12 142.19,64.69 C 144.29,66.25 147.27,68.58 149.06,70.06 C 150.86,71.54 153.38,73.73 154.88,75.12 C 156.37,76.52 158.26,78.40 159.62,79.88 C 160.99,81.35 163.12,83.81 164.53,85.55 C 165.94,87.28 168.14,90.14 169.59,92.14 C 171.05,94.14 173.31,97.40 174.81,99.66 C 176.31,101.92 178.90,106.18 180.19,108.09 C 181.47,110.01 183.07,112.20 183.88,113.16 C 184.68,114.11 185.55,114.84 185.88,114.84 C 186.20,114.84 186.34,114.11 186.19,113.16 C 186.04,112.20 185.24,109.52 184.81,108.09 C 184.39,106.67 183.69,104.49 183.20,103.08 C 182.71,101.66 181.91,99.51 181.36,98.11 C 180.80,96.71 179.90,94.58 179.28,93.19 C 178.66,91.80 177.75,89.81 176.97,88.31 C 176.19,86.81 174.82,84.33 173.80,82.59 C 172.78,80.85 171.03,78.01 169.77,76.03 C 168.50,74.05 166.38,70.84 164.88,68.62 C 163.37,66.41 160.71,62.58 159.12,60.38 C 157.54,58.17 155.19,55.01 153.70,53.08 C 152.21,51.15 150.01,48.40 148.61,46.73 C 147.21,45.07 145.15,42.74 143.84,41.34 C 142.54,39.95 140.63,38.10 139.41,36.91 C 138.18,35.71 136.36,33.97 135.20,32.89 C 134.05,31.81 132.33,30.26 131.23,29.30 C 130.14,28.34 128.52,26.96 127.50,26.12 C 126.48,25.29 125.17,24.23 124.00,23.38 C 122.83,22.52 120.77,21.11 119.25,20.11 C 117.73,19.11 115.13,17.47 113.25,16.33 C 111.37,15.18 108.23,13.32 106.00,12.03 C 103.77,10.74 99.65,8.41 97.50,7.22 C 95.35,6.03 92.46,4.46 90.83,3.61 C 89.20,2.76 87.10,1.71 85.98,1.20 C 84.87,0.69 83.56,0.17 82.97,0.00 C 82.37,-0.17 82.08,-0.27 81.78,0.00 C 81.49,0.27 81.10,1.09 80.89,1.89 C 80.68,2.69 80.42,4.33 80.30,5.67 C 80.17,7.01 80.04,9.47 80.00,11.34 Z" fill="#2C626B"/>
  <path d="M 344.41,66.25 C 343.60,65.66 341.56,64.43 340.34,63.75 C 339.12,63.07 337.15,62.07 335.80,61.44 C 334.44,60.81 332.26,59.89 330.77,59.31 C 329.27,58.74 326.88,57.90 325.25,57.38 C 323.62,56.85 320.94,56.07 319.25,55.62 C 317.56,55.18 314.99,54.59 313.33,54.25 C 311.66,53.91 309.13,53.48 307.48,53.25 C 305.84,53.02 303.34,52.75 301.72,52.62 C 300.10,52.50 297.66,52.39 296.03,52.38 C 294.40,52.36 291.87,52.41 290.20,52.50 C 288.53,52.59 285.95,52.81 284.23,53.00 C 282.52,53.19 279.88,53.57 278.12,53.88 C 276.37,54.18 273.65,54.70 271.88,55.12 C 270.10,55.55 267.38,56.32 265.59,56.89 C 263.81,57.46 261.07,58.45 259.28,59.17 C 257.49,59.89 254.74,61.10 252.94,61.97 C 251.14,62.83 248.29,64.32 246.56,65.28 C 244.83,66.24 242.31,67.75 240.73,68.75 C 239.16,69.75 236.87,71.33 235.45,72.38 C 234.03,73.42 231.98,75.06 230.72,76.16 C 229.45,77.25 227.66,78.98 226.53,80.09 C 225.40,81.20 223.77,82.89 222.77,83.98 C 221.76,85.08 220.31,86.75 219.42,87.83 C 218.53,88.91 217.27,90.56 216.50,91.62 C 215.73,92.69 214.69,94.27 214.00,95.38 C 213.31,96.48 212.27,98.25 211.61,99.45 C 210.95,100.66 209.96,102.56 209.33,103.86 C 208.70,105.15 207.76,107.21 207.16,108.59 C 206.56,109.98 205.59,112.40 205.09,113.66 C 204.60,114.91 203.97,116.57 203.66,117.47 C 203.34,118.37 202.99,119.48 202.84,120.03 C 202.70,120.58 202.62,121.15 202.66,121.34 C 202.69,121.54 202.84,121.55 203.09,121.41 C 203.35,121.27 203.93,120.81 204.44,120.36 C 204.95,119.91 205.92,118.97 206.69,118.20 C 207.45,117.44 208.82,116.02 209.84,114.94 C 210.87,113.86 212.68,111.81 213.91,110.56 C 215.13,109.32 217.13,107.41 218.52,106.16 C 219.90,104.90 222.13,102.98 223.67,101.72 C 225.21,100.46 227.68,98.52 229.38,97.25 C 231.07,95.98 233.83,93.97 235.62,92.75 C 237.42,91.53 240.19,89.73 242.03,88.61 C 243.87,87.49 246.71,85.85 248.59,84.83 C 250.48,83.81 253.39,82.32 255.31,81.41 C 257.24,80.49 260.17,79.16 262.19,78.34 C 264.20,77.52 267.38,76.34 269.53,75.61 C 271.68,74.88 275.06,73.84 277.34,73.20 C 279.62,72.57 283.21,71.67 285.62,71.12 C 288.04,70.58 292.03,69.81 294.38,69.38 C 296.72,68.94 300.10,68.37 302.17,68.06 C 304.25,67.75 307.21,67.37 309.02,67.19 C 310.82,67.00 313.37,66.81 314.91,66.75 C 316.44,66.69 318.41,66.72 319.84,66.75 C 321.27,66.78 323.51,66.87 325.00,66.95 C 326.49,67.04 328.82,67.22 330.38,67.36 C 331.93,67.50 334.35,67.77 335.97,67.97 C 337.58,68.17 340.48,68.67 341.78,68.78 C 343.08,68.89 344.53,68.89 345.12,68.77 C 345.72,68.64 346.10,68.28 346.00,67.92 C 345.90,67.57 345.21,66.84 344.41,66.25 Z" fill="#2C626B"/>
  <path d="M 56.19,50.47 C 55.90,52.19 55.94,55.92 56.31,57.78 C 56.69,59.64 57.78,62.15 58.83,63.58 C 59.88,65.01 62.01,66.86 63.73,67.86 C 65.46,68.86 68.63,70.06 71.03,70.62 C 73.44,71.19 78.06,71.49 80.72,71.88 C 83.38,72.26 87.31,72.91 89.80,73.38 C 92.28,73.84 95.95,74.59 98.27,75.12 C 100.58,75.66 103.98,76.52 106.12,77.12 C 108.27,77.73 111.33,78.69 113.38,79.38 C 115.42,80.06 118.55,81.18 120.59,81.95 C 122.63,82.73 125.75,83.99 127.78,84.86 C 129.81,85.73 132.91,87.13 134.94,88.09 C 136.96,89.06 140.01,90.56 142.06,91.66 C 144.11,92.75 147.29,94.55 149.39,95.81 C 151.50,97.07 154.76,99.13 156.92,100.56 C 159.08,101.99 162.44,104.31 164.66,105.91 C 166.88,107.50 170.69,110.47 172.59,111.84 C 174.49,113.22 176.86,114.84 178.06,115.59 C 179.26,116.35 180.56,117.02 181.06,117.16 C 181.56,117.29 181.79,117.02 181.59,116.53 C 181.39,116.04 180.30,114.59 179.66,113.72 C 179.01,112.85 177.86,111.42 177.02,110.41 C 176.17,109.40 174.72,107.74 173.67,106.59 C 172.62,105.44 170.87,103.57 169.62,102.28 C 168.38,100.99 166.33,98.87 164.88,97.47 C 163.42,96.07 161.04,93.89 159.38,92.42 C 157.71,90.96 155.00,88.67 153.12,87.14 C 151.25,85.61 148.21,83.22 146.12,81.62 C 144.04,80.03 140.60,77.45 138.38,75.88 C 136.15,74.30 132.70,71.96 130.41,70.48 C 128.12,69.01 124.57,66.83 122.22,65.45 C 119.87,64.08 116.23,62.05 113.81,60.78 C 111.40,59.51 107.65,57.63 105.19,56.47 C 102.73,55.31 98.94,53.62 96.45,52.58 C 93.96,51.54 90.13,50.03 87.61,49.11 C 85.09,48.19 81.21,46.87 78.66,46.06 C 76.10,45.26 71.84,43.83 69.59,43.44 C 67.35,43.05 64.42,42.98 62.83,43.30 C 61.24,43.61 59.30,44.62 58.36,45.64 C 57.42,46.66 56.48,48.75 56.19,50.47 Z" fill="#2C626B"/>
</svg>